<svg width="23.999999999999996" height="23.999999999999996" xmlns="http://www.w3.org/2000/svg">

 <g>
  <title>background</title>
  <rect fill="none" id="canvas_background" height="402" width="582" y="-1" x="-1"/>
 </g>
 <g>
  <title>Layer 1</title>
  <path id="svg_2" fill="#6b6b6b" d="m22,13c0,5.523 -4.477,10 -10,10c-5.5228,0 -10,-4.477 -10,-10c0,-5.5228 4.4772,-10 10,-10c5.523,0 10,4.4772 10,10z"/>
  <path id="svg_3" fill="#afafaf" d="m22,12c0,5.523 -4.477,10 -10,10c-5.5228,0 -10,-4.477 -10,-10c0,-5.5228 4.4772,-10 10,-10c5.523,0 10,4.4772 10,10z"/>
  <path id="svg_4" fill="#6b6b6b" d="m7.0503,9.399976l3.5357,3.6l-3.5357,3.5l1.4142,1.4l3.5355,-3.5l3.536,3.5l1.414,-1.4l-3.536,-3.5l3.536,-3.6l-1.414,-1.4l-3.536,3.5l-3.5355,-3.5l-1.4142,1.4z"/>
  <path id="svg_5" fill="#ecf0f1" d="m7.0503,8.399976l3.5357,3.6l-3.5357,3.5l1.4142,1.4l3.5355,-3.5l3.536,3.5l1.414,-1.4l-3.536,-3.5l3.536,-3.6l-1.414,-1.4l-3.536,3.5l-3.5355,-3.5l-1.4142,1.4z"/>
 </g>
</svg>